PathFileType	4	(X/Y/Z)	Patient4_TMGait_0pt3_03_left_22.trc.trc
DataRate	CameraRate	NumFrames	NumMarkers	Units	OrigDataRate	OrigDataStartFrame	OrigNumFrames
57.142857142857	57.142857142857	4	33	mm	57.142857142857	89	       141
Frame#	Time	Sacral			L.Shoulder			Chest			R.Shoulder			Neck			R.ASIS			L.ASIS			R.Thigh.Superior			R.Thigh.Lateral			R.Thigh.Inferior			R.Patella			L.Thigh.Superior			L.Thigh.Lateral			L.Thigh.Inferior			L.Patella			L.Shank.Superior			L.Shank.Lateral			L.Shank.Inferior			R.Shank.Superior			R.Shank.Lateral			R.Shank.Inferior			R.Heel			R.Midfoot.Superior			R.Midfoot.Lateral			R.Toe			L.Heel			L.Midfoot.Lateral			L.Midfoot.Superior			L.Toe			L.Elbow			L.Wrist			R.Elbow			R.Wrist			
		X1	Y1	Z1	X2	Y2	Z2	X3	Y3	Z3	X4	Y4	Z4	X5	Y5	Z5	X6	Y6	Z6	X7	Y7	Z7	X8	Y8	Z8	X9	Y9	Z9	X10	Y10	Z10	X11	Y11	Z11	X12	Y12	Z12	X13	Y13	Z13	X14	Y14	Z14	X15	Y15	Z15	X16	Y16	Z16	X17	Y17	Z17	X18	Y18	Z18	X19	Y19	Z19	X20	Y20	Z20	X21	Y21	Z21	X22	Y22	Z22	X23	Y23	Z23	X24	Y24	Z24	X25	Y25	Z25	X26	Y26	Z26	X27	Y27	Z27	X28	Y28	Z28	X29	Y29	Z29	X30	Y30	Z30	X31	Y31	Z31	X32	Y32	Z32	X33	Y33	Z33	

89	39.890000000000	735.020874810737	1015.545240294840	506.878087652250	954.364955000717	1433.720897171581	352.047274662000	1026.246110335870	1367.053452785583	528.782237319962	918.112085930894	1446.300144335836	685.615765160219	900.124434571544	1497.303739255593	503.778547948155	941.810243492083	942.614108710838	658.580470231357	968.793157200623	961.024424105306	386.278102409620	988.889141854278	743.479413388846	627.406845917792	905.980560760119	633.619896470227	680.123389037058	989.027924848277	583.274572138534	603.873757420447	992.328957624061	496.830133587616	609.129063994838	976.792519484793	731.809963214438	405.038995581851	877.966324408895	633.102530995298	323.739722765358	944.460742330954	538.845328464660	385.580513818283	932.475666482328	463.551769338396	384.301746574321	878.744529725571	405.280832552465	370.622752951744	757.000913861099	332.926635561342	308.234659070961	765.436092201110	203.627387871878	364.903500296125	965.337665454949	407.575036782479	614.695647366367	895.151093415571	303.945336564028	678.286977196127	936.405149498153	208.621405787660	614.305991162128	801.213070287653	43.909870374936	589.434807229438	973.879058669305	97.537976582750	620.272132716573	886.884246411719	37.370689457488	660.918194187023	1094.486105646296	44.223296919244	644.231964974002	593.538489404544	86.685453797701	388.674008007481	669.185832863098	62.620112900383	314.347584721434	763.069648522081	104.863919520994	343.933560257588	875.217777483482	36.565196251006	324.201459996376	1023.414909338812	1092.737552561322	226.544738388438	1270.749934835100	1010.843361910370	225.761359339079	786.478732774002	1120.721995158074	783.364086854511	774.061055565332	860.662371434211	800.386002013565	
90	39.907500000000	734.432306252930	1015.579713322678	512.306823645502	952.323279886685	1433.663222034271	355.266943461277	1025.658123001985	1367.260442746006	531.540945087491	918.681298413278	1446.584034672645	689.053800911695	899.375604362242	1497.534211250419	507.031981997304	942.311769058636	942.699567796091	662.669782667548	967.332021148619	961.258849596139	390.166018613266	988.155247599264	743.031558817235	630.904399980148	904.563935058609	633.263825821842	683.148397192606	987.118958726169	582.731125199153	606.597942303001	989.902737697268	496.145007857416	611.349044017012	979.204050951925	733.244558710825	408.296779732935	882.718248549998	632.980378282987	326.911773924872	951.903770062386	539.429433585297	388.074253440703	940.772684719746	462.855456635191	385.769867785248	884.909254779353	405.272499103329	372.157539420081	760.904959939467	336.680252554479	309.935593399272	766.567224486885	206.556743039552	364.951136532250	962.351000304320	407.097364029293	616.394334672109	891.650907160354	303.534048356995	679.401536317369	932.241355024209	208.328904939964	614.878036657860	796.142777634099	43.969028721512	589.435460553901	968.826187043184	97.480294301117	620.357915073482	881.800094867836	37.394996977844	660.898108827576	1089.420095420424	43.957997617701	644.347966238876	591.547201871288	95.019036076410	388.303831016940	666.140834620771	67.764372985236	314.108970425593	761.616323009673	106.560594713960	343.294007196379	870.460231749416	36.141990943291	324.207078375717	1018.351964067154	1091.246695698377	231.153628639889	1263.747455484333	1003.118179362749	229.868822468410	791.930764612436	1118.874675781503	788.556582971234	783.766365731363	858.725070153843	805.884061736402	
91	39.925000000000	733.644706277279	1015.400257150016	517.646043709477	949.976997294408	1433.439680688138	358.331834491941	1024.843211737988	1367.281729233934	534.091197196219	919.070136248107	1446.596644471025	692.350042170112	898.410203155060	1497.583611071747	510.168147226423	942.767638591476	942.618853659055	666.493545722977	965.577404032298	961.349275044419	393.786833020092	987.580918925881	742.560135954502	633.943719518496	903.571813917813	632.799831151412	685.933554438715	985.558256054526	582.144319488321	608.979937753604	987.900287038524	495.310639346067	613.351961492300	981.770724053131	734.802339970452	411.431236494052	887.939457422185	632.813147137288	329.994199097687	959.861002806849	540.197931979439	390.700075441367	949.608013551766	462.324380944597	387.382260351408	891.730074697035	405.367456202378	373.732236491532	765.560757142822	340.688043617168	311.651570008658	768.312988802579	209.821617461714	364.989438210861	959.651662107984	406.475181651680	617.927197611103	888.342540933000	303.068499883683	680.397595793288	928.153473440372	207.939012101389	615.359253998413	791.005470631801	44.021019764502	589.417959928482	963.708199945286	97.396824398154	620.397825410823	876.640338457141	37.416450206048	660.873285666735	1084.286965087081	43.696076911205	644.447012020105	590.273097152384	104.232618429144	387.941535162756	663.542276409523	73.631446598472	313.866460150694	760.579525604107	108.547034148733	342.645375213548	865.717468130775	35.556894515754	324.178875428850	1012.855489336908	1089.499676257041	235.818894885604	1255.771473120454	994.231522048825	233.981251273375	797.659490183588	1116.631633679881	793.508579343486	794.101144676587	856.453534394298	811.124556580551	
92	39.942500000000	732.672892026285	1014.986385369296	522.883653260764	947.295412780351	1433.075553763807	361.262370082944	1023.779397495993	1367.119100692190	536.435909169283	919.258198715698	1446.308925512748	695.523081243420	897.194607202171	1497.443517638607	513.224660079937	943.210118649546	942.370073120059	670.002722924498	963.545770063970	961.303388421691	397.100072147818	987.233152423590	742.055600959287	636.522280680799	903.072609604764	632.206049948732	688.452840388507	984.440323992271	581.501925935618	611.000876831757	986.437822561252	494.301498057547	615.109222806802	984.498049507090	736.517230339240	414.481655410090	893.660315518718	632.644637351356	333.008454433628	968.301545149666	541.211565357655	393.531320119063	958.972956729284	462.017008842400	389.215670465641	899.203423262476	405.598215860571	375.403492714613	770.983130386692	344.968089614548	313.432256770616	770.698443890325	213.454361891824	365.082935754598	957.323100043702	405.686012184927	619.271356766885	885.291290542447	302.547802550208	681.268086162723	924.169392653653	207.440964203341	615.744441568325	785.804371868947	44.061402986482	589.393277999678	958.526949127699	97.295986889750	620.405970972295	871.410533178484	37.432313622366	660.854119337235	1079.090375444632	43.452830659843	644.539508507892	589.816224025800	114.364064742378	387.669008567747	661.456698904825	80.296020752664	313.682659017288	759.973991702155	110.890959586396	342.044320465869	860.986306519621	34.782499470432	324.118075910748	1006.959873866540	1087.555561150496	240.532626446985	1246.702486727129	984.171738016862	238.106203594906	803.655137442932	1113.988794921481	798.223841594416	805.116235093624	853.859655751630	816.125510986279	
